<?xml version="1.0" encoding="UTF-8"?>
<svg id="Layer_1" data-name="Layer 1" xmlns="http://www.w3.org/2000/svg" viewBox="0 0 16 16">
  <defs>
    <style>
      .cls-1 {
        fill: #ffb739;
      }

      .cls-2 {
        fill: #fdb639;
      }

      .cls-3 {
        fill: #fff;
      }
    </style>
  </defs>
  <polygon class="cls-1" points="9.81 7.21 10.38 7.21 10.09 6.72 9.81 7.21"/>
  <path class="cls-1" d="M2.91,7.33c0-.44.29-.76.71-.76s.72.31.72.76c0,.4-.26.72-.71.72s-.72-.29-.72-.72M2.32,7.31c0,.73.51,1.27,1.23,1.27.34,0,.58-.11.81-.37v.32h.54v-2.43h-.54v.33c-.2-.27-.44-.38-.8-.38-.72,0-1.24.54-1.24,1.28"/>
  <path class="cls-3" d="M3.11,8.18c-.14-.08-.25-.2-.33-.35-.08-.15-.12-.33-.12-.54s.04-.38.12-.54c.08-.15.19-.27.33-.35.14-.08.31-.12.51-.12.18,0,.35.04.5.13.15.08.26.2.34.35.08.15.12.33.12.52s-.04.37-.12.52c-.08.15-.2.27-.34.35-.15.08-.31.13-.5.13-.19,0-.36-.04-.51-.12M3.08,6.35c-.16.09-.28.21-.37.37-.09.16-.13.35-.13.57s.04.41.13.57c.09.16.21.29.37.37.16.09.34.13.54.13.24,0,.45-.06.62-.19.17-.13.28-.3.34-.51v.67h.07v-2.09h-.07v.67c-.06-.21-.17-.38-.34-.51-.17-.13-.38-.19-.62-.19-.2,0-.38.04-.54.13"/>
  <path class="cls-1" d="M5.61,7.33c0-.44.29-.76.71-.76s.72.31.72.76c0,.4-.26.72-.71.72s-.72-.29-.72-.72M5.02,7.31c0,.73.51,1.27,1.23,1.27.34,0,.58-.11.81-.37v.32h.54v-2.43h-.54v.33c-.2-.27-.44-.38-.8-.38-.72,0-1.24.54-1.24,1.28"/>
  <path class="cls-3" d="M5.82,8.18c-.14-.08-.25-.2-.33-.35-.08-.15-.12-.33-.12-.54s.04-.38.12-.54c.08-.15.19-.27.33-.35.14-.08.31-.12.51-.12.18,0,.35.04.5.13.15.08.26.2.34.35.08.15.12.33.12.52s-.04.37-.12.52c-.08.15-.2.27-.34.35-.15.08-.31.13-.5.13-.19,0-.36-.04-.51-.12M5.78,6.35c-.16.09-.28.21-.37.37-.09.16-.13.35-.13.57s.04.41.13.57c.09.16.21.29.37.37.16.09.34.13.54.13.24,0,.45-.06.62-.19.17-.13.28-.3.34-.51v.67h.07v-2.09h-.07v.67c-.06-.21-.17-.38-.34-.51-.17-.13-.38-.19-.62-.19-.2,0-.38.04-.54.13"/>
  <path class="cls-2" d="M8.85,6.03c-.25,0-.37.07-.53.29v-.24h-.54v2.43h.58v-1.35c0-.38.17-.57.52-.58v-.56h-.04Z"/>
  <path class="cls-1" d="M9.38,7.3c0-.4.32-.73.7-.73s.71.33.71.74-.32.74-.7.74-.71-.33-.71-.75M8.79,7.31c0,.7.58,1.27,1.29,1.27s1.3-.57,1.3-1.26c0-.73-.57-1.29-1.3-1.29s-1.29.58-1.29,1.27"/>
  <path class="cls-3" d="M9.62,8.18c-.15-.07-.26-.19-.35-.34-.09-.15-.13-.34-.13-.56s.04-.4.13-.56c.09-.15.21-.26.35-.34.15-.07.3-.11.48-.11s.33.04.47.11c.14.07.26.19.35.33.09.15.13.34.13.56s-.04.41-.13.56c-.09.15-.21.26-.35.33-.14.07-.3.11-.47.11s-.33-.04-.48-.11M9.57,6.34c-.16.09-.28.21-.37.37-.09.16-.14.35-.14.57s.05.41.14.57c.09.16.22.29.37.37.16.09.34.13.53.13s.37-.04.53-.13c.16-.09.28-.21.37-.37.09-.16.13-.35.13-.57s-.04-.41-.13-.57c-.09-.16-.21-.28-.37-.37-.16-.09-.34-.13-.53-.13s-.37.04-.53.13"/>
  <path class="cls-1" d="M12.06,6.32v-.23h-.54v2.43h.58v-1.15c0-.33.02-.47.1-.58.09-.15.25-.22.43-.22.29,0,.47.11.47.76v1.19h.58v-1.31c0-.44-.04-.65-.18-.83-.16-.23-.42-.35-.76-.35-.28,0-.47.08-.69.29"/>
  <path class="cls-3" d="M12.12,6.35c-.15.11-.26.26-.31.48v-.59h-.08v2.09h.08v-1.11c0-.31.08-.55.23-.71.15-.16.36-.24.61-.24s.43.07.57.21c.14.14.21.35.21.62v1.23h.07v-1.22c0-.31-.08-.54-.24-.69-.16-.15-.37-.23-.62-.23-.2,0-.38.05-.53.16"/>
  <path class="cls-3" d="M8.76,6.31s0,.05,0,.08c-.22,0-.43.14-.51.24-.14.17-.17.28-.17.59v1.11h-.08v-2.09h.08v.59c.05-.21.17-.32.26-.39.08-.06.22-.13.42-.13Z"/>
  <polygon class="cls-1" points="9.81 7.39 10.09 7.89 10.38 7.39 9.81 7.39"/>
  <polygon class="cls-3" points="3.33 9.15 3.33 9.46 3.65 9.46 3.65 9.55 3.33 9.55 3.33 9.87 3.69 9.87 3.69 9.96 3.21 9.96 3.21 9.06 3.69 9.06 3.69 9.15 3.33 9.15"/>
  <polygon class="cls-3" points="4.3 9.87 4.62 9.87 4.62 9.96 4.18 9.96 4.18 9.06 4.3 9.06 4.3 9.87"/>
  <polygon class="cls-3" points="5.16 9.15 5.16 9.46 5.49 9.46 5.49 9.55 5.16 9.55 5.16 9.87 5.53 9.87 5.53 9.96 5.04 9.96 5.04 9.06 5.53 9.06 5.53 9.15 5.16 9.15"/>
  <polygon class="cls-3" points="6.07 9.06 6.36 9.83 6.65 9.06 6.78 9.06 6.43 9.96 6.3 9.96 5.94 9.06 6.07 9.06"/>
  <path class="cls-3" d="M7.77,9.76h-.41l-.07.2h-.12l.33-.9h.13l.33.9h-.12l-.07-.2ZM7.74,9.67l-.17-.47-.17.47h.34Z"/>
  <polygon class="cls-3" points="8.99 9.06 8.99 9.15 8.74 9.15 8.74 9.96 8.62 9.96 8.62 9.15 8.38 9.15 8.38 9.06 8.99 9.06"/>
  <g>
    <path class="cls-3" d="M10.1,9.11c.07.04.13.09.17.16.04.07.06.15.06.24s-.02.17-.06.24c-.04.07-.1.12-.17.16-.07.04-.15.06-.23.06s-.16-.02-.24-.06c-.07-.04-.13-.09-.17-.16-.04-.07-.06-.15-.06-.24s.02-.17.06-.24c.04-.07.1-.12.17-.16.07-.04.15-.06.24-.06s.16.02.23.06M9.69,9.2c-.05.03-.09.07-.12.12-.03.05-.04.12-.04.19s.01.13.04.19c.03.05.07.1.12.12.05.03.11.04.18.04s.12-.01.18-.04c.05-.03.09-.07.12-.12.03-.05.04-.12.04-.19s-.01-.13-.04-.19c-.03-.05-.07-.1-.12-.12-.05-.03-.11-.04-.18-.04s-.12.01-.18.04"/>
    <path class="cls-3" d="M11.26,9.96l-.24-.37h-.12v.37h-.12v-.9h.3c.07,0,.13.01.17.03.05.02.08.05.11.09.02.04.04.09.04.14,0,.06-.02.12-.06.17-.04.05-.1.08-.18.09l.25.38h-.15ZM10.9,9.49h.18c.07,0,.12-.01.15-.04.03-.03.05-.07.05-.13s-.02-.1-.05-.13c-.03-.03-.08-.04-.15-.04h-.18v.34Z"/>
    <path class="cls-3" d="M12.46,9.83s-.06.07-.11.1c-.05.02-.1.04-.17.04-.06,0-.11,0-.16-.03-.05-.02-.08-.05-.11-.08-.03-.04-.04-.08-.04-.13h.13s.02.07.05.1c.03.03.07.04.13.04s.11-.01.14-.04c.03-.03.05-.07.05-.11,0-.03,0-.06-.03-.08-.02-.02-.04-.04-.07-.05-.03-.01-.07-.02-.12-.03-.06-.01-.11-.03-.15-.04-.04-.01-.07-.04-.1-.07-.03-.03-.04-.08-.04-.14,0-.05.01-.09.04-.13.02-.04.06-.07.11-.09.05-.02.1-.03.16-.03.08,0,.15.02.2.06.05.04.08.1.09.17h-.13s-.02-.07-.05-.09c-.03-.03-.07-.04-.12-.04s-.09.01-.13.04c-.03.03-.05.06-.05.11,0,.04,0,.06.03.08.02.02.04.04.07.05.03.01.07.02.12.03.06.01.11.03.15.04.04.01.07.04.09.07.03.03.04.08.04.13,0,.05-.01.09-.04.13"/>
  </g>
</svg>